<svg width="220" height="68" viewBox="0 0 220 68" fill="none" xmlns="http://www.w3.org/2000/svg">
<g clip-path="url(#clip0_828:2979)">
<path d="M76.3036 34.0463V10.3467H87.5154C90.9733 10.3467 93.5325 11.2013 95.2387 12.8799C96.6249 14.2686 97.3409 16.1609 97.3409 18.5111C97.3409 22.0057 95.7109 24.4321 92.4662 25.7751L98.1178 34.0463H90.5468L85.7635 26.8891H82.8844V34.0463H76.3036ZM82.8387 21.7158H87.1802C89.1301 21.7158 90.6991 20.8307 90.6991 18.8315C90.6991 16.7714 89.1301 16.0236 87.1345 16.0236H82.8235V21.7158H82.8387Z" fill="url(#gradient1)"/>
<path d="M121.592 30.9484C113.793 38.5023 99.6716 33.5885 99.7783 22.2194C99.6412 15.3064 105.643 9.70576 112.559 9.88889C123.832 9.67524 129.559 23.0282 121.592 30.9484ZM112.559 28.5983C118.15 28.7356 120.465 21.4716 116.87 17.7023C114.737 15.2148 110.32 15.169 108.187 17.7023C104.653 21.5021 106.968 28.7051 112.559 28.5983Z" fill="url(#gradient2)"/>
<path d="M140.086 34.5039C128.95 34.6108 123.862 21.1357 131.433 13.4139C136.384 8.21009 146.24 8.71369 150.292 14.8789L145.509 18.6178C141.594 13.5513 134.617 15.8709 134.663 22.2192C134.693 28.8118 141.807 30.8109 145.661 25.6681L150.612 29.1933C147.885 32.7642 144.793 34.5497 140.086 34.5039Z" fill="url(#gradient3)"/>
<path d="M153.37 34.0463V10.3467H159.92V19.9608L168.07 10.3467H175.869L166.897 20.5407L176.143 34.0463H168.283L162.342 25.2409L159.966 27.9115V34.0463H153.37Z" fill="url(#gradient4)"/>
<path d="M178.063 34.0462V10.3467H197.105V15.9473H184.537V19.5488H195.886V24.7221H184.537V28.4609H197.242V34.0615H178.063V34.0462Z" fill="url(#gradient5)"/>
<path d="M206.381 34.0463V16.1304H199.268V10.3467H220.015V16.1152H212.901V34.0768H206.397V34.0463H206.381Z" fill="url(#gradient6)"/>
<path d="M76.7609 61.0573V42.5615H84.6975C86.9672 42.5615 88.7191 43.1719 89.9225 44.408C91.7657 46.1477 91.8419 49.9629 89.953 51.7178C89.0237 52.6487 87.8203 53.2134 86.3274 53.5033L91.979 61.0573H89.4198L84.0881 53.8543H78.8631V61.0573H76.7609ZM78.8631 52.0078H84.5147C87.0434 52.0383 89.2827 50.7564 89.2522 48.1621C89.2218 45.5678 87.0891 44.5301 84.5147 44.5301H78.8174V52.0078H78.8631Z" fill="url(#gradient7)"/>
<path d="M96.7925 61.0573V42.5615H110.137V44.4538H98.8947V50.7564H108.964V52.6487H98.8947V59.1344H110.274V61.0267H96.7925V61.0573Z" fill="url(#gradient8)"/>
<path d="M120.633 61.1946L114.052 42.5615H116.322L121.592 57.9594L126.65 42.5005H128.356L133.414 57.9594L138.684 42.5615H140.893L134.297 61.1946H132.515L127.457 46.1935L122.369 61.1946H120.633Z" fill="url(#gradient9)"/>
<path d="M141.655 61.0572L150.049 42.4241H151.999L160.392 61.0572H158.183L156.02 56.1738H145.981L143.773 61.0572H141.655ZM146.819 54.312H155.213L151.008 44.8658L146.819 54.312Z" fill="url(#gradient10)"/>
<path d="M165.069 61.0573V42.5615H173.005C175.275 42.5615 177.027 43.1719 178.23 44.408C180.073 46.1477 180.15 49.9629 178.261 51.7178C177.331 52.6487 176.128 53.2134 174.635 53.5033L180.287 61.0573H177.773L172.442 53.8543H167.171V61.0573H165.069ZM167.14 52.0078H172.792C175.321 52.0383 177.56 50.7564 177.529 48.1621C177.499 45.5678 175.366 44.5301 172.792 44.5301H167.095V52.0078H167.14Z" fill="url(#gradient11)"/>
<path d="M185.1 61.0574V42.5617H191.498C196.937 42.4549 201.385 46.3768 201.324 51.7943C201.4 57.2118 196.906 61.1643 191.498 61.0269C191.513 61.0574 185.1 61.0574 185.1 61.0574ZM187.172 59.1346H191.513C195.885 59.2414 199.206 56.1436 199.161 51.8248C199.191 47.5519 195.855 44.4082 191.513 44.515H187.172V59.1346Z" fill="url(#gradient12)"/>
<path d="M212.749 61.3321C209.9 61.3321 207.417 60.3402 205.209 58.3716L206.488 56.8455C208.438 58.5852 210.22 59.4398 212.825 59.4398C214.074 59.4398 215.064 59.1499 215.811 58.5547C217.228 57.517 217.334 55.1669 215.948 54.0986C215.278 53.5645 214.029 53.1067 212.14 52.7099C208.545 51.8248 206.016 50.9702 205.955 47.323C205.955 44.1488 208.91 42.2259 212.003 42.2565C214.455 42.2565 216.588 43.0042 218.477 44.5303L217.273 46.1326C215.004 44.2403 211.469 43.2789 209.093 44.9881C207.676 46.0258 207.631 48.3301 209.063 49.3373C209.779 49.8715 211.089 50.3293 213.054 50.7566C215.156 51.2144 216.679 51.8553 217.639 52.6794C218.599 53.5035 219.056 54.6022 219.056 56.0672C219.086 59.4856 216.055 61.3779 212.749 61.3321Z" fill="url(#gradient13)"/>
<path d="M12.1562 65.8644C12.9179 65.8644 13.6338 66.0934 14.2279 66.4901C13.9994 65.9407 13.8623 65.3303 13.8623 64.6894C13.8623 62.1561 15.9036 60.1112 18.4324 60.1112C18.8589 60.1112 19.2854 60.1723 19.6815 60.2791C19.6815 60.2181 19.6815 60.157 19.6815 60.1112C19.6815 56.7997 22.3626 54.1139 25.6682 54.1139C26.6431 54.1139 27.5571 54.3428 28.3797 54.7548C29.6898 52.6488 30.7104 50.5429 31.3959 48.559H36.362C36.9409 50.2377 37.7482 51.9926 38.7689 53.7629C39.3325 53.4729 39.9571 53.305 40.6426 53.305C42.8514 53.305 44.6489 55.1058 44.6489 57.3186C44.6489 57.6238 44.6185 57.9137 44.5575 58.2037C44.8622 58.1579 45.1669 58.1274 45.4715 58.1274C48.6096 58.1274 51.1688 60.6606 51.1993 63.8043C51.8391 63.4685 52.5551 63.2702 53.332 63.2702C55.8302 63.2702 57.841 65.2693 57.902 67.7567C63.9801 61.622 67.7427 53.1677 67.7427 43.8435C67.7275 25.1036 52.5703 9.91943 33.8637 9.91943C15.1572 9.91943 0 25.1036 0 43.8435C0 52.893 3.53414 61.1184 9.30758 67.2074C9.99308 66.3833 11.0137 65.8644 12.1562 65.8644Z" fill="url(#gradient14)"/>
<path d="M37.5655 42.3785L33.8638 40.2268L30.1621 42.3785C29.2481 46.1174 29.9793 50.7871 33.8638 53.3051C37.7483 50.7871 38.4795 46.1174 37.5655 42.3785Z" fill="url(#gradient15)"/>
<path d="M36.6216 42.7446L33.8643 41.188L31.1071 42.7446C30.4216 45.4609 30.97 48.8488 33.8643 50.6648C36.7587 48.8488 37.3071 45.4609 36.6216 42.7446Z" fill="url(#gradient16)"/>
<path d="M39.2415 40.7913C46.8582 17.7022 42.5014 7.32504 33.8641 0C25.2268 7.32504 20.87 17.7022 28.4867 40.7913C31.4268 40.7913 36.3014 40.7913 39.2415 40.7913Z" fill="url(#gradient17)"/>
<path d="M26.4911 28.5676C21.4945 30.9025 18.783 38.1207 19.9255 42.882C20.0169 43.2482 20.4587 43.3551 20.7024 43.0804C24.3432 38.9142 28.7304 38.9142 29.2331 39.8299C28.9284 33.1153 26.4911 28.5676 26.4911 28.5676Z" fill="url(#gradient18)"/>
<path d="M41.2367 28.5676C46.2333 30.9025 48.9448 38.1207 47.8023 42.882C47.7109 43.2482 47.2691 43.3551 47.0254 43.0804C43.3846 38.9142 38.9974 38.9142 38.4947 39.8299C38.7994 33.1153 41.2367 28.5676 41.2367 28.5676Z" fill="url(#gradient19)"/>
<path d="M40.018 7.20296C38.4337 4.41029 36.3163 2.07543 33.8637 0C31.4111 2.07543 29.2937 4.41029 27.7094 7.20296H40.018Z" fill="url(#gradient20)"/>
<path d="M37.9616 43.2329H29.7813C29.568 43.2329 29.37 43.0651 29.3547 42.8514L29.0958 40.7913H38.6623L38.4033 42.8514C38.3576 43.0651 38.1748 43.2329 37.9616 43.2329Z" fill="url(#gradient21)"/>
<path d="M33.8638 20.3728C36.1354 20.3728 37.9768 18.528 37.9768 16.2524C37.9768 13.9768 36.1354 12.1321 33.8638 12.1321C31.5923 12.1321 29.7508 13.9768 29.7508 16.2524C29.7508 18.528 31.5923 20.3728 33.8638 20.3728Z" fill="url(#gradient22)"/>
<path d="M33.8637 12.6815C35.844 12.6815 37.474 14.2991 37.474 16.2983C37.474 18.2821 35.8593 19.915 33.8637 19.915C31.8834 19.915 30.2534 18.2974 30.2534 16.2983C30.2534 14.2991 31.8834 12.6815 33.8637 12.6815ZM33.8637 11.4607C31.1979 11.4607 29.0347 13.6277 29.0347 16.2983C29.0347 18.9689 31.1979 21.1359 33.8637 21.1359C36.5295 21.1359 38.6927 18.9689 38.6927 16.2983C38.6927 13.6277 36.5295 11.4607 33.8637 11.4607Z" fill="url(#gradient23)"/>
<path d="M18.5698 28.7357C18.7464 28.7357 18.8897 28.5922 18.8897 28.4152C18.8897 28.2382 18.7464 28.0947 18.5698 28.0947C18.3931 28.0947 18.2499 28.2382 18.2499 28.4152C18.2499 28.5922 18.3931 28.7357 18.5698 28.7357Z" fill="white"/>
<path d="M16.0407 54.2816C16.0407 54.3732 15.9645 54.4495 15.8731 54.4495C15.7817 54.4495 15.7056 54.3732 15.7056 54.2816C15.7056 54.1901 15.7817 54.1138 15.8731 54.1138C15.9798 54.1138 16.0407 54.1901 16.0407 54.2816Z" fill="white"/>
<path d="M60.7507 47.6739C60.8433 47.6739 60.9183 47.5987 60.9183 47.506C60.9183 47.4133 60.8433 47.3381 60.7507 47.3381C60.6582 47.3381 60.5832 47.4133 60.5832 47.506C60.5832 47.5987 60.6582 47.6739 60.7507 47.6739Z" fill="white"/>
<path d="M15.7212 37.2051C15.8138 37.2051 15.8888 37.13 15.8888 37.0372C15.8888 36.9445 15.8138 36.8694 15.7212 36.8694C15.6287 36.8694 15.5536 36.9445 15.5536 37.0372C15.5536 37.13 15.6287 37.2051 15.7212 37.2051Z" fill="white"/>
<path d="M16.8179 21.7766C16.9104 21.7766 16.9854 21.7015 16.9854 21.6088C16.9854 21.5161 16.9104 21.4409 16.8179 21.4409C16.7253 21.4409 16.6503 21.5161 16.6503 21.6088C16.6503 21.7015 16.7253 21.7766 16.8179 21.7766Z" fill="white"/>
<path d="M47.4211 22.9367C47.4211 23.0282 47.345 23.1045 47.2536 23.1045C47.1622 23.1045 47.086 23.0282 47.086 22.9367C47.086 22.8451 47.1622 22.7688 47.2536 22.7688C47.3602 22.7841 47.4211 22.8604 47.4211 22.9367Z" fill="white"/>
<path d="M60.2629 30.17C60.4396 30.17 60.5828 30.0265 60.5828 29.8495C60.5828 29.6725 60.4396 29.5291 60.2629 29.5291C60.0862 29.5291 59.943 29.6725 59.943 29.8495C59.943 30.0265 60.0862 30.17 60.2629 30.17Z" fill="white"/>
<path d="M6.73327 41.8748C6.77534 41.8748 6.80944 41.8406 6.80944 41.7985C6.80944 41.7563 6.77534 41.7222 6.73327 41.7222C6.69121 41.7222 6.6571 41.7563 6.6571 41.7985C6.6571 41.8406 6.69121 41.8748 6.73327 41.8748Z" fill="white"/>
<path d="M50.4682 31.4824C50.5103 31.4824 50.5444 31.4483 50.5444 31.4061C50.5444 31.364 50.5103 31.3298 50.4682 31.3298C50.4262 31.3298 50.3921 31.364 50.3921 31.4061C50.3921 31.4483 50.4262 31.4824 50.4682 31.4824Z" fill="white"/>
<path d="M6.73327 32.7185C6.77534 32.7185 6.80944 32.6844 6.80944 32.6422C6.80944 32.6001 6.77534 32.5659 6.73327 32.5659C6.69121 32.5659 6.6571 32.6001 6.6571 32.6422C6.6571 32.6844 6.69121 32.7185 6.73327 32.7185Z" fill="white"/>
<path d="M53.0726 19.1671C53.0726 19.2129 53.0421 19.2434 52.9964 19.2434C52.9507 19.2434 52.9203 19.2129 52.9203 19.1671C52.9203 19.1213 52.9507 19.0908 52.9964 19.0908C53.0269 19.0908 53.0726 19.1213 53.0726 19.1671Z" fill="white"/>
<path d="M55.2816 38.5633C55.2816 38.7006 55.175 38.8074 55.0378 38.8074C54.9007 38.8074 54.7941 38.7006 54.7941 38.5633C54.7941 38.4259 54.9007 38.3191 55.0378 38.3191C55.175 38.3191 55.2816 38.4259 55.2816 38.5633Z" fill="white"/>
<path d="M5.42268 53.305C5.42268 53.4423 5.31604 53.5491 5.17894 53.5491C5.04184 53.5491 4.93521 53.4423 4.93521 53.305C4.93521 53.1676 5.04184 53.0608 5.17894 53.0608C5.31604 53.0608 5.42268 53.1676 5.42268 53.305Z" fill="white"/>
<path d="M11.3186 46.1782C11.3186 46.2545 11.2576 46.3308 11.1662 46.3308C11.0901 46.3308 11.0139 46.2698 11.0139 46.1782C11.0139 46.1019 11.0748 46.0256 11.1662 46.0256C11.2576 46.0256 11.3186 46.0867 11.3186 46.1782Z" fill="white"/>
<path d="M53.3168 55.9145C53.4935 55.9145 53.6367 55.771 53.6367 55.594C53.6367 55.417 53.4935 55.2736 53.3168 55.2736C53.1402 55.2736 52.9969 55.417 52.9969 55.594C52.9969 55.771 53.1402 55.9145 53.3168 55.9145Z" fill="white"/>
<path d="M27.633 59.8059C29.004 59.8059 30.2379 60.4163 31.0757 61.3929C31.1671 61.4998 31.3194 61.3777 31.2585 61.2709C30.5273 60.0348 29.1868 59.1954 27.6482 59.1954C26.1096 59.1954 24.7691 60.0348 24.0379 61.2709C23.977 61.3777 24.1293 61.4998 24.2207 61.3929C25.0281 60.4163 26.262 59.8059 27.633 59.8059Z" fill="url(#gradient24)"/>
<path d="M36.5298 58.173C37.9008 58.173 39.1347 58.7835 39.9725 59.7601C40.0639 59.867 40.2163 59.7449 40.1553 59.638C39.4241 58.4019 38.0836 57.5626 36.545 57.5626C35.0064 57.5626 33.6659 58.4019 32.9347 59.638C32.8738 59.7449 33.0261 59.867 33.1175 59.7601C33.9249 58.7987 35.1588 58.173 36.5298 58.173Z" fill="url(#gradient25)"/>
<path d="M22.3778 63.6973C23.7488 63.6973 24.9827 64.3078 25.8206 65.2844C25.912 65.3913 26.0643 65.2692 26.0034 65.1623C25.2721 63.9262 23.9316 63.0869 22.393 63.0869C20.8545 63.0869 19.5139 63.9262 18.7827 65.1623C18.7218 65.2692 18.8741 65.3913 18.9655 65.2844C19.7729 64.323 20.9916 63.6973 22.3778 63.6973Z" fill="url(#gradient26)"/>
<path d="M42.1198 63.0412C43.4908 63.0412 44.7247 63.6516 45.5625 64.6283C45.6539 64.7351 45.8063 64.613 45.7453 64.5062C45.0141 63.2701 43.6736 62.4308 42.135 62.4308C40.5965 62.4308 39.2559 63.2701 38.5247 64.5062C38.4638 64.613 38.6161 64.7351 38.7075 64.6283C39.5149 63.6669 40.7488 63.0412 42.1198 63.0412Z" fill="url(#gradient27)"/>
</g>
<defs>
<linearGradient id="gradient1" x1="87.2028" y1="10.3511" x2="87.2028" y2="34.0452" gradientUnits="userSpaceOnUse">
<stop stop-color="white"/>
<stop offset="1" stop-color="#CBCBCB"/>
</linearGradient>
<linearGradient id="gradient2" x1="112.54" y1="9.88379" x2="112.54" y2="34.5658" gradientUnits="userSpaceOnUse">
<stop stop-color="white"/>
<stop offset="1" stop-color="#CBCBCB"/>
</linearGradient>
<linearGradient id="gradient3" x1="139.217" y1="9.85161" x2="139.217" y2="34.5089" gradientUnits="userSpaceOnUse">
<stop stop-color="white"/>
<stop offset="1" stop-color="#CBCBCB"/>
</linearGradient>
<linearGradient id="gradient4" x1="164.75" y1="10.3511" x2="164.75" y2="34.0452" gradientUnits="userSpaceOnUse">
<stop stop-color="white"/>
<stop offset="1" stop-color="#CBCBCB"/>
</linearGradient>
<linearGradient id="gradient5" x1="187.646" y1="10.3511" x2="187.646" y2="34.0452" gradientUnits="userSpaceOnUse">
<stop stop-color="white"/>
<stop offset="1" stop-color="#CBCBCB"/>
</linearGradient>
<linearGradient id="gradient6" x1="209.634" y1="10.3511" x2="209.634" y2="34.0808" gradientUnits="userSpaceOnUse">
<stop stop-color="white"/>
<stop offset="1" stop-color="#CBCBCB"/>
</linearGradient>
<linearGradient id="gradient7" x1="84.3745" y1="42.5607" x2="84.3745" y2="61.0528" gradientUnits="userSpaceOnUse">
<stop stop-color="#EC7E25"/>
<stop offset="1" stop-color="#C3392E"/>
</linearGradient>
<linearGradient id="gradient8" x1="103.534" y1="42.5607" x2="103.534" y2="61.0528" gradientUnits="userSpaceOnUse">
<stop stop-color="#EC7E25"/>
<stop offset="1" stop-color="#C3392E"/>
</linearGradient>
<linearGradient id="gradient9" x1="127.462" y1="42.4895" x2="127.462" y2="61.1953" gradientUnits="userSpaceOnUse">
<stop stop-color="#EC7E25"/>
<stop offset="1" stop-color="#C3392E"/>
</linearGradient>
<linearGradient id="gradient10" x1="151.034" y1="42.4181" x2="151.034" y2="61.0526" gradientUnits="userSpaceOnUse">
<stop stop-color="#EC7E25"/>
<stop offset="1" stop-color="#C3392E"/>
</linearGradient>
<linearGradient id="gradient11" x1="172.684" y1="42.5607" x2="172.684" y2="61.0528" gradientUnits="userSpaceOnUse">
<stop stop-color="#EC7E25"/>
<stop offset="1" stop-color="#C3392E"/>
</linearGradient>
<linearGradient id="gradient12" x1="193.214" y1="42.5587" x2="193.214" y2="61.0529" gradientUnits="userSpaceOnUse">
<stop stop-color="#EC7E25"/>
<stop offset="1" stop-color="#C3392E"/>
</linearGradient>
<linearGradient id="gradient13" x1="212.125" y1="42.2753" x2="212.125" y2="61.3384" gradientUnits="userSpaceOnUse">
<stop stop-color="#EC7E25"/>
<stop offset="1" stop-color="#C3392E"/>
</linearGradient>
<linearGradient id="gradient14" x1="33.8648" y1="67.7518" x2="33.8648" y2="9.91232" gradientUnits="userSpaceOnUse">
<stop stop-color="#FF7E00"/>
<stop offset="1"/>
</linearGradient>
<linearGradient id="gradient15" x1="29.8115" y1="46.7648" x2="37.9181" y2="46.7648" gradientUnits="userSpaceOnUse">
<stop stop-color="#F2AF00"/>
<stop offset="1" stop-color="#F0730E"/>
</linearGradient>
<linearGradient id="gradient16" x1="30.8467" y1="45.9316" x2="36.8841" y2="45.9316" gradientUnits="userSpaceOnUse">
<stop stop-color="#FCFBAC"/>
<stop offset="1" stop-color="#F2AF00"/>
</linearGradient>
<linearGradient id="gradient17" x1="24.5532" y1="20.3982" x2="43.1771" y2="20.3982" gradientUnits="userSpaceOnUse">
<stop stop-color="white"/>
<stop offset="0.9973" stop-color="#C1C1C1"/>
</linearGradient>
<linearGradient id="gradient18" x1="19.6721" y1="35.9006" x2="29.2398" y2="35.9006" gradientUnits="userSpaceOnUse">
<stop stop-color="#F13D25"/>
<stop offset="1" stop-color="#AE2709"/>
</linearGradient>
<linearGradient id="gradient19" x1="38.49" y1="35.9006" x2="48.0578" y2="35.9006" gradientUnits="userSpaceOnUse">
<stop stop-color="#F13D25"/>
<stop offset="1" stop-color="#AE2709"/>
</linearGradient>
<linearGradient id="gradient20" x1="27.71" y1="3.6053" x2="40.0195" y2="3.6053" gradientUnits="userSpaceOnUse">
<stop stop-color="#F13D25"/>
<stop offset="1" stop-color="#AE2709"/>
</linearGradient>
<linearGradient id="gradient21" x1="29.0854" y1="42.0146" x2="38.6443" y2="42.0146" gradientUnits="userSpaceOnUse">
<stop stop-color="#444A4B"/>
<stop offset="0.9973" stop-color="#001230"/>
</linearGradient>
<linearGradient id="gradient22" x1="29.7466" y1="16.2546" x2="37.977" y2="16.2546" gradientUnits="userSpaceOnUse">
<stop stop-color="#00006C"/>
<stop offset="1" stop-color="#D57100"/>
</linearGradient>
<linearGradient id="gradient23" x1="29.0408" y1="16.2889" x2="38.6886" y2="16.2889" gradientUnits="userSpaceOnUse">
<stop stop-color="#444A4B"/>
<stop offset="0.9973" stop-color="#001230"/>
</linearGradient>
<linearGradient id="gradient24" x1="24.0073" y1="60.3182" x2="31.2661" y2="60.3182" gradientUnits="userSpaceOnUse">
<stop stop-color="#DB4900"/>
<stop offset="1" stop-color="#000E3F"/>
</linearGradient>
<linearGradient id="gradient25" x1="32.8985" y1="58.6923" x2="40.1573" y2="58.6923" gradientUnits="userSpaceOnUse">
<stop stop-color="#DB4900"/>
<stop offset="1" stop-color="#000E3F"/>
</linearGradient>
<linearGradient id="gradient26" x1="18.7457" y1="64.2165" x2="26.0045" y2="64.2165" gradientUnits="userSpaceOnUse">
<stop stop-color="#DB4900"/>
<stop offset="1" stop-color="#000E3F"/>
</linearGradient>
<linearGradient id="gradient27" x1="38.4892" y1="63.5577" x2="45.7481" y2="63.5577" gradientUnits="userSpaceOnUse">
<stop stop-color="#DB4900"/>
<stop offset="1" stop-color="#000E3F"/>
</linearGradient>
<clipPath id="clip0_828:2979">
<rect width="220" height="67.7567" fill="white"/>
</clipPath>
</defs>
</svg>
