<svg width="30" height="30" viewBox="0 0 30 30" fill="none" xmlns="http://www.w3.org/2000/svg">
<path d="M29.9098 8.81561C29.8368 7.21893 29.5832 6.12854 29.2124 5.17456C28.8359 4.17366 28.2454 3.26706 27.4823 2.5177C26.7332 1.75461 25.8263 1.16386 24.8254 0.787125C23.8712 0.416565 22.7811 0.163193 21.1844 0.0906372C19.5847 0.017395 19.0736 0 15 0C10.9264 0 10.4153 0.017395 8.81561 0.0901794C7.21893 0.163193 6.12877 0.416794 5.17456 0.787583C4.17366 1.16409 3.26706 1.75461 2.5177 2.5177C1.75461 3.26683 1.16386 4.17343 0.787125 5.17433C0.416565 6.12854 0.163193 7.21893 0.0906372 8.81539C0.017395 10.4153 0 10.9261 0 14.9998C0 19.0736 0.017395 19.5847 0.0906372 21.1844C0.163422 22.7808 0.417023 23.8712 0.787811 24.8254C1.16432 25.8261 1.75484 26.7329 2.51793 27.4821C3.26706 28.2452 4.17389 28.8357 5.17479 29.2122C6.12877 29.5832 7.21916 29.8366 8.81584 29.9096C10.4157 29.9826 10.9266 29.9998 15.0002 29.9998C19.0739 29.9998 19.585 29.9826 21.1846 29.9096C22.7813 29.8366 23.8715 29.5832 24.8257 29.2122C26.8405 28.4331 28.4333 26.8403 29.2124 24.8254C29.5834 23.8712 29.8368 22.7808 29.9098 21.1844C29.9826 19.5845 30 19.0736 30 15C30 10.9261 29.9826 10.4153 29.9098 8.81561ZM27.2097 21.0615C27.1431 22.524 26.8987 23.3183 26.6933 23.8467C26.1887 25.155 25.1548 26.1889 23.8465 26.6936C23.318 26.8989 22.5238 27.1433 21.0612 27.2099C19.4799 27.2823 19.0054 27.2974 15 27.2974C10.9943 27.2974 10.5201 27.2823 8.93852 27.2099C7.4762 27.1433 6.68198 26.8989 6.15326 26.6936C5.50186 26.453 4.91249 26.0696 4.42863 25.5714C3.93036 25.0875 3.54698 24.4984 3.30643 23.8467C3.10112 23.3183 2.85667 22.524 2.79007 21.0615C2.71797 19.4799 2.70264 19.0054 2.70264 15.0002C2.70264 10.9948 2.71797 10.5206 2.79007 8.93875C2.8569 7.4762 3.10112 6.68198 3.30643 6.15349C3.54698 5.50186 3.93059 4.91249 4.42863 4.42864C4.91249 3.93036 5.50186 3.54698 6.15349 3.30666C6.68198 3.10112 7.4762 2.8569 8.93875 2.79007C10.5203 2.71797 10.9948 2.70264 15 2.70264H14.9998C19.005 2.70264 19.4794 2.71797 21.0612 2.7903C22.5238 2.8569 23.3178 3.10135 23.8465 3.30666C24.4979 3.54721 25.0873 3.93059 25.5711 4.42864C26.0694 4.91249 26.4528 5.50186 26.6931 6.15349C26.8987 6.68198 27.1431 7.4762 27.2097 8.93875C27.2818 10.5203 27.2971 10.9948 27.2971 15C27.2971 19.0054 27.282 19.4797 27.2097 21.0615Z" fill="url(#gradient1)"/>
<path d="M14.9997 7.29712C10.7457 7.29712 7.29718 10.7459 7.29718 14.9999C7.29718 19.2539 10.7457 22.7025 14.9997 22.7025C19.254 22.7025 22.7025 19.2539 22.7025 14.9999C22.7025 10.7459 19.254 7.29712 14.9997 7.29712ZM14.9997 19.9998C12.2385 19.9996 9.99982 17.7611 10 14.9997C10 12.2384 12.2385 9.99975 15 9.99975C17.7614 9.99998 19.9999 12.2384 19.9999 14.9997C19.9999 17.7611 17.7612 19.9998 14.9997 19.9998Z" fill="url(#gradient2)"/>
<path d="M24.8069 6.99303C24.8069 7.98706 24.001 8.79295 23.0069 8.79295C22.0127 8.79295 21.2068 7.98706 21.2068 6.99303C21.2068 5.99876 22.0127 5.19287 23.0069 5.19287C24.001 5.19287 24.8069 5.99876 24.8069 6.99303Z" fill="url(#paint2_linear_718:4712)"/>
<defs>
<linearGradient id="gradient1" x1="2.51755" y1="27.4822" x2="27.4824" y2="2.51731" gradientUnits="userSpaceOnUse">
<stop stop-color="#FFD600"/>
<stop offset="0.5" stop-color="#FF0100"/>
<stop offset="1" stop-color="#D800B9"/>
</linearGradient>
<linearGradient id="gradient2" x1="9.55327" y1="20.4464" x2="20.4465" y2="9.5532" gradientUnits="userSpaceOnUse">
<stop stop-color="#FF6400"/>
<stop offset="0.5" stop-color="#FF0100"/>
<stop offset="1" stop-color="#FD0056"/>
</linearGradient>
<linearGradient id="paint2_linear_718:4712" x1="21.7341" y1="8.26568" x2="24.2796" y2="5.72016" gradientUnits="userSpaceOnUse">
<stop stop-color="#F30072"/>
<stop offset="1" stop-color="#E50097"/>
</linearGradient>
</defs>
</svg>
